<?xml version="1.0" encoding="utf-8"?>
<!-- Generator: Adobe Illustrator 21.0.0, SVG Export Plug-In . SVG Version: 6.00 Build 0)  -->
<svg version="1.1" id="Layer_1" xmlns="http://www.w3.org/2000/svg" xmlns:xlink="http://www.w3.org/1999/xlink" x="0px" y="0px"
	 viewBox="0 0 1280 1280" style="enable-background:new 0 0 1280 1280;" xml:space="preserve">
<style type="text/css">
	.st0{fill:none;stroke:#345972;stroke-width:2;stroke-linecap:round;stroke-linejoin:round;stroke-miterlimit:10;}
</style>
<g>
	<path class="st0" d="M557.6,221.6L557.6,221.6c-3.3,0-6-2.7-6-6v0c0-3.3,2.7-6,6-6h0c3.3,0,6,2.7,6,6v0
		C563.6,218.9,560.9,221.6,557.6,221.6z"/>
	<path class="st0" d="M581.6,221.6L581.6,221.6c-3.3,0-6-2.7-6-6v0c0-3.3,2.7-6,6-6h0c3.3,0,6,2.7,6,6v0
		C587.6,218.9,584.9,221.6,581.6,221.6z"/>
	<path class="st0" d="M533.6,221.6L533.6,221.6c-3.3,0-6-2.7-6-6v0c0-3.3,2.7-6,6-6h0c3.3,0,6,2.7,6,6v0
		C539.6,218.9,536.9,221.6,533.6,221.6z"/>
	<path class="st0" d="M557.6,245.6L557.6,245.6c-3.3,0-6-2.7-6-6v0c0-3.3,2.7-6,6-6h0c3.3,0,6,2.7,6,6v0
		C563.6,242.9,560.9,245.6,557.6,245.6z"/>
	<path class="st0" d="M581.6,245.6L581.6,245.6c-3.3,0-6-2.7-6-6v0c0-3.3,2.7-6,6-6h0c3.3,0,6,2.7,6,6v0
		C587.6,242.9,584.9,245.6,581.6,245.6z"/>
	<path class="st0" d="M533.6,245.6L533.6,245.6c-3.3,0-6-2.7-6-6v0c0-3.3,2.7-6,6-6h0c3.3,0,6,2.7,6,6v0
		C539.6,242.9,536.9,245.6,533.6,245.6z"/>
	<path class="st0" d="M557.6,269.6L557.6,269.6c-3.3,0-6-2.7-6-6l0,0c0-3.3,2.7-6,6-6h0c3.3,0,6,2.7,6,6l0,0
		C563.6,266.9,560.9,269.6,557.6,269.6z"/>
	<path class="st0" d="M581.6,269.6L581.6,269.6c-3.3,0-6-2.7-6-6l0,0c0-3.3,2.7-6,6-6h0c3.3,0,6,2.7,6,6l0,0
		C587.6,266.9,584.9,269.6,581.6,269.6z"/>
	<path class="st0" d="M533.6,269.6L533.6,269.6c-3.3,0-6-2.7-6-6l0,0c0-3.3,2.7-6,6-6h0c3.3,0,6,2.7,6,6l0,0
		C539.6,266.9,536.9,269.6,533.6,269.6z"/>
	<line class="st0" x1="538.1" y1="220.1" x2="553.1" y2="235.1"/>
	<line class="st0" x1="557.6" y1="245.6" x2="557.6" y2="257.6"/>
	<line class="st0" x1="581.6" y1="221.6" x2="581.6" y2="233.6"/>
	<line class="st0" x1="581.6" y1="245.6" x2="581.6" y2="257.6"/>
	<line class="st0" x1="563.6" y1="215.6" x2="575.6" y2="215.6"/>
	<line class="st0" x1="551.6" y1="263.6" x2="539.6" y2="263.6"/>
	<line class="st0" x1="533.6" y1="245.6" x2="533.6" y2="257.6"/>
</g>
</svg>
