<?xml version="1.0" encoding="utf-8"?>
<!-- Generator: Adobe Illustrator 21.0.0, SVG Export Plug-In . SVG Version: 6.00 Build 0)  -->
<svg version="1.1" id="Layer_1" xmlns="http://www.w3.org/2000/svg" xmlns:xlink="http://www.w3.org/1999/xlink" x="0px" y="0px"
	 viewBox="0 0 1280 1280" style="enable-background:new 0 0 1280 1280;" xml:space="preserve">
<style type="text/css">
	.st0{fill:none;stroke:#345972;stroke-width:2;stroke-linecap:round;stroke-linejoin:round;stroke-miterlimit:10;}
</style>
<g>
	<rect x="626.7" y="50.7" class="st0" width="15" height="22.5"/>
	<polygon class="st0" points="632,99.5 623,99.5 626.7,73.2 635.7,73.2 	"/>
	<path class="st0" d="M596.7,69.5L596.7,69.5c-4.1,0-7.5-3.4-7.5-7.5v0c0-4.1,3.4-7.5,7.5-7.5l0,0V69.5z"/>
	<path class="st0" d="M641.7,54.5h2.5c2.8,0,5,2.2,5,5v5c0,2.8-2.2,5-5,5h-2.5V54.5z"/>
	<polygon class="st0" points="626.7,50.7 611.7,47 596.7,39.5 596.7,84.5 611.7,77 626.7,73.2 641.7,73.2 641.7,50.7 	"/>
</g>
</svg>
