<?xml version="1.0" encoding="utf-8"?>
<!-- Generator: Adobe Illustrator 21.0.0, SVG Export Plug-In . SVG Version: 6.00 Build 0)  -->
<svg version="1.1" id="Layer_1" xmlns="http://www.w3.org/2000/svg" xmlns:xlink="http://www.w3.org/1999/xlink" x="0px" y="0px"
	 viewBox="0 0 1280 1280" style="enable-background:new 0 0 1280 1280;" xml:space="preserve">
<style type="text/css">
	.st0{fill:#345972;}
	.st1{fill:#FFFFFF;}
</style>
<g>
	<g>
		<circle class="st0" cx="759.8" cy="731" r="58"/>
		<path class="st0" d="M759.8,669.9c33.7,0,61.1,27.4,61.1,61.1s-27.4,61.1-61.1,61.1c-33.7,0-61.1-27.4-61.1-61.1
			S726.1,669.9,759.8,669.9 M759.8,667c-35.3,0-64,28.7-64,64s28.7,64,64,64c35.3,0,64-28.7,64-64S795.1,667,759.8,667L759.8,667z"
			/>
		<g>
			<path class="st1" d="M788.8,738.3h-43.5c-8,0-14.5-6.5-14.5-14.5l0,0h43.5C782.3,723.7,788.8,730.2,788.8,738.3L788.8,738.3z"/>
			<path class="st1" d="M774.3,694.7h-29c-8,0-14.5,6.5-14.5,14.5v11h14.5v-11h43.5C788.8,701.2,782.3,694.7,774.3,694.7z"/>
			<path class="st1" d="M774.3,741.7v11h-43.5c0,8,6.5,14.5,14.5,14.5h29c8,0,14.5-6.5,14.5-14.5v-11H774.3z"/>
		</g>
	</g>
	<g>
		<path class="st0" d="M608.7,887.5v-10.8c7.5,0.7,13.8,1.1,19.1,1.1c3.1,0,5.5-0.1,7.2-0.4c1.7-0.3,3-0.7,3.9-1.4
			c0.8-0.6,1.3-1.3,1.5-2.2c0.2-0.8,0.3-2.1,0.3-3.6c0-1.8-0.1-3-0.4-3.9c-0.2-0.8-0.7-1.4-1.5-1.8c-0.7-0.4-1.9-0.7-3.6-0.9
			l-13.4-1.5c-4-0.5-7.1-1.6-9.3-3.1c-2.2-1.5-3.7-3.5-4.5-6c-0.8-2.5-1.2-5.5-1.2-9.1c0-5.3,1-9.4,2.9-12.1
			c1.9-2.8,4.5-4.6,7.8-5.4c3.3-0.8,7.5-1.3,12.6-1.3c7.9,0,14.7,0.6,20.4,1.8v10.5c-5.9-0.8-11.8-1.2-17.7-1.2
			c-5.5,0-9.1,0.5-10.8,1.4c-1,0.5-1.6,1.1-1.8,1.9c-0.2,0.8-0.4,2-0.4,3.5c0,1.8,0.1,3.1,0.4,3.9c0.2,0.8,0.8,1.3,1.6,1.7
			c0.8,0.3,2.2,0.6,4.1,0.9l14.4,1.7c2.8,0.3,5.1,0.9,6.9,1.7c1.8,0.8,3.2,2.2,4.3,4c1.5,2.6,2.2,6.6,2.2,12.1
			c0,5.8-0.9,10.1-2.7,13c-1.8,2.9-4.3,4.8-7.3,5.7c-3.1,0.9-7.1,1.3-12,1.3C622.7,889,615.1,888.5,608.7,887.5z"/>
		<path class="st0" d="M680,888.3v-50.8h-18.2v-11.7h49.3v11.7h-18.2v50.8H680z"/>
		<path class="st0" d="M757.9,888.3l-4.5-13.5H729l-4.5,13.5h-13l21.2-62.5h17.4l21.2,62.5H757.9z M741.4,837.9h-0.5l-8.5,25.6h17.5
			L741.4,837.9z"/>
		<path class="st0" d="M780.6,887.5v-10.8c7.5,0.7,13.8,1.1,19.1,1.1c3.1,0,5.5-0.1,7.2-0.4c1.7-0.3,3-0.7,3.9-1.4
			c0.8-0.6,1.3-1.3,1.5-2.2c0.2-0.8,0.3-2.1,0.3-3.6c0-1.8-0.1-3-0.4-3.9c-0.2-0.8-0.7-1.4-1.5-1.8c-0.7-0.4-1.9-0.7-3.6-0.9
			l-13.4-1.5c-4-0.5-7.1-1.6-9.3-3.1c-2.2-1.5-3.7-3.5-4.5-6c-0.8-2.5-1.2-5.5-1.2-9.1c0-5.3,1-9.4,2.9-12.1
			c1.9-2.8,4.5-4.6,7.8-5.4c3.3-0.8,7.5-1.3,12.6-1.3c7.9,0,14.7,0.6,20.4,1.8v10.5c-5.9-0.8-11.8-1.2-17.7-1.2
			c-5.5,0-9.1,0.5-10.8,1.4c-1,0.5-1.6,1.1-1.8,1.9c-0.2,0.8-0.4,2-0.4,3.5c0,1.8,0.1,3.1,0.4,3.9c0.2,0.8,0.8,1.3,1.6,1.7
			c0.8,0.3,2.2,0.6,4.1,0.9l14.4,1.7c2.8,0.3,5.1,0.9,6.9,1.7c1.8,0.8,3.2,2.2,4.3,4c1.5,2.6,2.2,6.6,2.2,12.1
			c0,5.8-0.9,10.1-2.7,13c-1.8,2.9-4.3,4.8-7.3,5.7c-3.1,0.9-7.1,1.3-12,1.3C794.6,889,787,888.5,780.6,887.5z"/>
		<path class="st0" d="M839.4,888.3v-62.5h12.9v62.5H839.4z"/>
		<path class="st0" d="M867.7,887.5v-10.8c7.5,0.7,13.8,1.1,19.1,1.1c3.1,0,5.5-0.1,7.2-0.4c1.7-0.3,3-0.7,3.9-1.4
			c0.8-0.6,1.3-1.3,1.5-2.2c0.2-0.8,0.3-2.1,0.3-3.6c0-1.8-0.1-3-0.4-3.9c-0.2-0.8-0.7-1.4-1.5-1.8c-0.7-0.4-1.9-0.7-3.6-0.9
			l-13.4-1.5c-4-0.5-7.1-1.6-9.3-3.1c-2.2-1.5-3.7-3.5-4.5-6c-0.8-2.5-1.2-5.5-1.2-9.1c0-5.3,1-9.4,2.9-12.1
			c1.9-2.8,4.5-4.6,7.8-5.4c3.3-0.8,7.5-1.3,12.6-1.3c7.9,0,14.7,0.6,20.4,1.8v10.5c-5.9-0.8-11.8-1.2-17.7-1.2
			c-5.5,0-9.1,0.5-10.8,1.4c-1,0.5-1.6,1.1-1.8,1.9c-0.2,0.8-0.4,2-0.4,3.5c0,1.8,0.1,3.1,0.4,3.9c0.2,0.8,0.8,1.3,1.6,1.7
			c0.8,0.3,2.2,0.6,4.1,0.9l14.4,1.7c2.8,0.3,5.1,0.9,6.9,1.7c1.8,0.8,3.2,2.2,4.3,4c1.5,2.6,2.2,6.6,2.2,12.1
			c0,5.8-0.9,10.1-2.7,13c-1.8,2.9-4.3,4.8-7.3,5.7c-3.1,0.9-7.1,1.3-12,1.3C881.7,889,874.1,888.5,867.7,887.5z"/>
	</g>
</g>
</svg>
