<?xml version="1.0" encoding="utf-8"?>
<!-- Generator: Adobe Illustrator 21.0.0, SVG Export Plug-In . SVG Version: 6.00 Build 0)  -->
<svg version="1.1" id="Layer_1" xmlns="http://www.w3.org/2000/svg" xmlns:xlink="http://www.w3.org/1999/xlink" x="0px" y="0px"
	 viewBox="0 0 1280 1280" style="enable-background:new 0 0 1280 1280;" xml:space="preserve">
<style type="text/css">
	.st0{fill:#345972;}
</style>
<g>
	<path class="st0" d="M116,522c-17.7,0-32,14.3-32,32s14.3,32,32,32s32-14.3,32-32S133.7,522,116,522z M132,566c0,4.4-3.6,8-8,8h-16
		c-4.4,0-8-3.6-8-8h24v-5h8V566z M108,558c-4.4,0-8-3.6-8-8h24c4.4,0,8,3.6,8,8H108z M108,542v5h-8v-5c0-4.4,3.6-8,8-8h16
		c4.4,0,8,3.6,8,8H108z"/>
	<g>
		<path class="st0" d="M168.9,569.3v-5.4c3.7,0.4,6.9,0.5,9.5,0.5c1.5,0,2.8-0.1,3.6-0.2c0.9-0.1,1.5-0.4,1.9-0.7
			c0.4-0.3,0.6-0.7,0.7-1.1c0.1-0.4,0.2-1,0.2-1.8c0-0.9-0.1-1.5-0.2-1.9c-0.1-0.4-0.4-0.7-0.7-0.9c-0.4-0.2-1-0.3-1.8-0.4l-6.7-0.8
			c-2-0.3-3.5-0.8-4.6-1.6c-1.1-0.8-1.8-1.8-2.2-3c-0.4-1.2-0.6-2.8-0.6-4.6c0-2.7,0.5-4.7,1.5-6.1c1-1.4,2.3-2.3,3.9-2.7
			c1.6-0.4,3.7-0.6,6.3-0.6c4,0,7.4,0.3,10.2,0.9v5.3c-2.9-0.4-5.9-0.6-8.9-0.6c-2.7,0-4.5,0.2-5.4,0.7c-0.5,0.2-0.8,0.6-0.9,1
			c-0.1,0.4-0.2,1-0.2,1.8c0,0.9,0.1,1.6,0.2,2c0.1,0.4,0.4,0.7,0.8,0.8c0.4,0.2,1.1,0.3,2.1,0.4l7.2,0.9c1.4,0.2,2.5,0.4,3.5,0.8
			c0.9,0.4,1.6,1.1,2.1,2c0.7,1.3,1.1,3.3,1.1,6c0,2.9-0.5,5-1.4,6.5c-0.9,1.5-2.1,2.4-3.7,2.8c-1.5,0.4-3.5,0.7-6,0.7
			C175.9,570,172.1,569.8,168.9,569.3z"/>
		<path class="st0" d="M204.5,569.6v-25.4h-9.1v-5.9h24.6v5.9H211v25.4H204.5z"/>
		<path class="st0" d="M243.5,569.6l-2.3-6.7H229l-2.2,6.7h-6.5l10.6-31.3h8.7l10.6,31.3H243.5z M235.2,544.5H235l-4.2,12.8h8.7
			L235.2,544.5z"/>
		<path class="st0" d="M254.9,569.3v-5.4c3.7,0.4,6.9,0.5,9.5,0.5c1.5,0,2.8-0.1,3.6-0.2c0.9-0.1,1.5-0.4,1.9-0.7
			c0.4-0.3,0.6-0.7,0.7-1.1c0.1-0.4,0.2-1,0.2-1.8c0-0.9-0.1-1.5-0.2-1.9c-0.1-0.4-0.4-0.7-0.7-0.9c-0.4-0.2-1-0.3-1.8-0.4l-6.7-0.8
			c-2-0.3-3.5-0.8-4.6-1.6c-1.1-0.8-1.8-1.8-2.2-3c-0.4-1.2-0.6-2.8-0.6-4.6c0-2.7,0.5-4.7,1.5-6.1c1-1.4,2.3-2.3,3.9-2.7
			c1.6-0.4,3.7-0.6,6.3-0.6c4,0,7.4,0.3,10.2,0.9v5.3c-2.9-0.4-5.9-0.6-8.9-0.6c-2.7,0-4.5,0.2-5.4,0.7c-0.5,0.2-0.8,0.6-0.9,1
			c-0.1,0.4-0.2,1-0.2,1.8c0,0.9,0.1,1.6,0.2,2c0.1,0.4,0.4,0.7,0.8,0.8c0.4,0.2,1.1,0.3,2.1,0.4l7.2,0.9c1.4,0.2,2.5,0.4,3.5,0.8
			c0.9,0.4,1.6,1.1,2.1,2c0.7,1.3,1.1,3.3,1.1,6c0,2.9-0.5,5-1.4,6.5c-0.9,1.5-2.1,2.4-3.7,2.8c-1.5,0.4-3.5,0.7-6,0.7
			C261.9,570,258,569.8,254.9,569.3z"/>
		<path class="st0" d="M284.2,569.6v-31.3h6.5v31.3H284.2z"/>
		<path class="st0" d="M298.4,569.3v-5.4c3.7,0.4,6.9,0.5,9.5,0.5c1.5,0,2.8-0.1,3.6-0.2c0.9-0.1,1.5-0.4,1.9-0.7
			c0.4-0.3,0.6-0.7,0.7-1.1c0.1-0.4,0.2-1,0.2-1.8c0-0.9-0.1-1.5-0.2-1.9c-0.1-0.4-0.4-0.7-0.7-0.9c-0.4-0.2-1-0.3-1.8-0.4l-6.7-0.8
			c-2-0.3-3.5-0.8-4.6-1.6c-1.1-0.8-1.8-1.8-2.2-3c-0.4-1.2-0.6-2.8-0.6-4.6c0-2.7,0.5-4.7,1.5-6.1c1-1.4,2.3-2.3,3.9-2.7
			c1.6-0.4,3.7-0.6,6.3-0.6c4,0,7.4,0.3,10.2,0.9v5.3c-2.9-0.4-5.9-0.6-8.9-0.6c-2.7,0-4.5,0.2-5.4,0.7c-0.5,0.2-0.8,0.6-0.9,1
			c-0.1,0.4-0.2,1-0.2,1.8c0,0.9,0.1,1.6,0.2,2c0.1,0.4,0.4,0.7,0.8,0.8c0.4,0.2,1.1,0.3,2.1,0.4l7.2,0.9c1.4,0.2,2.5,0.4,3.5,0.8
			c0.9,0.4,1.6,1.1,2.1,2c0.7,1.3,1.1,3.3,1.1,6c0,2.9-0.5,5-1.4,6.5c-0.9,1.5-2.1,2.4-3.7,2.8c-1.5,0.4-3.5,0.7-6,0.7
			C305.4,570,301.6,569.8,298.4,569.3z"/>
	</g>
</g>
</svg>
